<svg xmlns="http://www.w3.org/2000/svg" width="24" height="24" viewBox="0 0 48 48"><g><path fill="#4285F4" d="M43.611 20.083H42V20H24v8h11.303C33.91 32.833 29.373 36 24 36c-6.627 0-12-5.373-12-12s5.373-12 12-12c2.855 0 5.467 1.01 7.535 2.674l6.366-6.366C34.583 6.053 29.617 4 24 4 12.954 4 4 12.954 4 24s8.954 20 20 20c11.046 0 19.799-8.954 19.799-20 0-1.341-.138-2.651-.388-3.917z"/><path fill="#34A853" d="M6.306 14.691l6.571 4.819C14.655 16.347 19.006 13 24 13c2.855 0 5.467 1.01 7.535 2.674l6.366-6.366C34.583 6.053 29.617 4 24 4c-7.732 0-14.646 4.41-18.294 10.691z"/><path fill="#FBBC05" d="M24 44c5.311 0 10.18-1.824 13.955-4.956l-6.508-5.34C29.376 35.683 26.791 36.5 24 36.5c-5.357 0-9.883-3.53-11.495-8.293l-6.594 5.087C8.987 39.524 15.957 44 24 44z"/><path fill="#EA4335" d="M43.611 20.083H42V20H24v8h11.303c-1.147 3.096-4.278 5.5-8.303 5.5-5.357 0-9.883-3.53-11.495-8.293l-6.594 5.087C8.987 39.524 15.957 44 24 44c5.311 0 10.18-1.824 13.955-4.956l-6.508-5.34C29.376 35.683 26.791 36.5 24 36.5c-5.357 0-9.883-3.53-11.495-8.293l-6.594 5.087C8.987 39.524 15.957 44 24 44z"/></g></svg>
